<svg width="33" height="35" viewBox="0 0 33 35" fill="none" xmlns="http://www.w3.org/2000/svg">
<path fill-rule="evenodd" clip-rule="evenodd" d="M8.25 0C7.33874 0 6.6 0.712282 6.6 1.59091V3.18182H4.95C2.2162 3.18182 0 5.31865 0 7.95455V30.2273C0 32.8632 2.2162 35 4.95 35H28.05C30.7839 35 33 32.8632 33 30.2273V7.95455C33 5.31865 30.7839 3.18182 28.05 3.18182H26.4V1.59091C26.4 0.712282 25.6613 0 24.75 0C23.8387 0 23.1 0.712282 23.1 1.59091V3.18182H9.9V1.59091C9.9 0.712282 9.16128 0 8.25 0ZM23.1 7.95455V6.36364H9.9V7.95455C9.9 8.83317 9.16128 9.54545 8.25 9.54545C7.33874 9.54545 6.6 8.83317 6.6 7.95455V6.36364H4.95C4.03874 6.36364 3.3 7.07592 3.3 7.95455V12.7273H29.7V7.95455C29.7 7.07592 28.9613 6.36364 28.05 6.36364H26.4V7.95455C26.4 8.83317 25.6613 9.54545 24.75 9.54545C23.8387 9.54545 23.1 8.83317 23.1 7.95455ZM3.3 22.2727V15.9091H9.9V22.2727H3.3ZM3.3 25.4545V30.2273C3.3 31.1059 4.03874 31.8182 4.95 31.8182H9.9V25.4545H3.3ZM13.2 25.4545V31.8182H19.8V25.4545H13.2ZM23.1 25.4545V31.8182H28.05C28.9613 31.8182 29.7 31.1059 29.7 30.2273V25.4545H23.1ZM29.7 22.2727H23.1V15.9091H29.7V22.2727ZM19.8 22.2727H13.2V15.9091H19.8V22.2727Z" fill="#AEAEAE" fill-opacity="0.8"/>
</svg>
