<svg width="34" height="34" viewBox="0 0 34 34" fill="none" xmlns="http://www.w3.org/2000/svg">
<g filter="url(#filter0_d_1254_269)">
<path d="M14.3333 8.5H23.6667M14.3333 14.5H23.6667M10.3333 8.5H10.3467M10.3333 14.5H10.3467M29 25L24.5676 22.5067C24.2316 22.3177 24.0636 22.2232 23.8875 22.1566C23.7312 22.0975 23.5703 22.0547 23.4069 22.0289C23.2229 22 20.3756 22.5067 20 22.5067L9.26667 22C7.77319 22 7.02645 22 6.45603 21.673C5.95425 21.3855 5.54631 20.9265 5.29065 20.362C5 19.7203 5 18.8802 5 17.2V5.8C5 4.11984 5 3.27976 5.29065 2.63803C5.54631 2.07354 5.95425 1.61459 6.45603 1.32698C7.02645 1 7.7732 1 9.26667 1H24.7333C26.2268 1 26.9736 1 27.544 1.32698C28.0457 1.61459 28.4537 2.07354 28.7093 2.63803C29 3.27976 29 4.11985 29 5.8V25Z" stroke="#333333" stroke-width="2" stroke-linecap="round" stroke-linejoin="round" shape-rendering="crispEdges"/>
</g>
<defs>
<filter id="filter0_d_1254_269" x="0" y="0" width="34" height="34" filterUnits="userSpaceOnUse" color-interpolation-filters="sRGB">
<feFlood flood-opacity="0" result="BackgroundImageFix"/>
<feColorMatrix in="SourceAlpha" type="matrix" values="0 0 0 0 0 0 0 0 0 0 0 0 0 0 0 0 0 0 127 0" result="hardAlpha"/>
<feOffset dy="4"/>
<feGaussianBlur stdDeviation="2"/>
<feComposite in2="hardAlpha" operator="out"/>
<feColorMatrix type="matrix" values="0 0 0 0 0.683333 0 0 0 0 0.683333 0 0 0 0 0.683333 0 0 0 0.8 0"/>
<feBlend mode="normal" in2="BackgroundImageFix" result="effect1_dropShadow_1254_269"/>
<feBlend mode="normal" in="SourceGraphic" in2="effect1_dropShadow_1254_269" result="shape"/>
</filter>
</defs>
</svg>
