<svg width="33" height="33" viewBox="0 0 33 33" fill="none" xmlns="http://www.w3.org/2000/svg">
<path d="M29.3333 0H3.66667C1.6445 0 0 1.6445 0 3.66667V29.3333C0 31.3555 1.6445 33 3.66667 33H18.3333C18.5741 33.0003 18.8126 32.9531 19.0351 32.8609C19.2575 32.7687 19.4595 32.6334 19.6295 32.4628L32.4628 19.6295C32.6136 19.4732 32.7352 19.2913 32.8222 19.0923C32.8478 19.0373 32.8625 18.9805 32.8827 18.9218C32.9349 18.7684 32.9663 18.6087 32.9762 18.447C32.9798 18.4085 33 18.3718 33 18.3333V3.66667C33 1.6445 31.3555 0 29.3333 0ZM3.66667 3.66667H29.3333V16.5H18.3333C17.8471 16.5 17.3808 16.6932 17.037 17.037C16.6932 17.3808 16.5 17.8471 16.5 18.3333V29.3333H3.66667V3.66667ZM20.1667 26.741V20.1667H26.741L20.1667 26.741Z" fill="black"/>
</svg>
