<svg width="33" height="32" viewBox="0 0 33 32" fill="none" xmlns="http://www.w3.org/2000/svg">
<path d="M19.1665 26.6663C24.1948 26.6663 26.709 26.6663 28.271 25.1042C29.8332 23.5422 29.8332 21.0279 29.8332 15.9997C29.8332 15.5341 29.8332 15.0901 29.832 14.6663M3.1665 11.333C3.1665 10.7139 3.1665 10.4043 3.19218 10.1436C3.44158 7.61143 5.44493 5.60809 7.97708 5.35869C8.23782 5.33301 8.54738 5.33301 9.1665 5.33301H19.1665C24.1948 5.33301 26.709 5.33301 28.271 6.8951C28.8972 7.52125 29.2724 8.30034 29.4972 9.33301" stroke="#1C274C" stroke-width="2" stroke-linecap="round" stroke-linejoin="round"/>
<path d="M15.1665 26.667C15.1665 20.0395 9.79392 14.667 3.1665 14.667" stroke="#1C274C" stroke-width="2" stroke-linecap="round"/>
<path d="M11.1665 26.667C11.1665 22.2487 7.58478 18.667 3.1665 18.667" stroke="#1C274C" stroke-width="2" stroke-linecap="round"/>
<path d="M7.1665 26.667C7.1665 24.4578 5.37564 22.667 3.1665 22.667" stroke="#1C274C" stroke-width="2" stroke-linecap="round"/>
</svg>
