<svg width="50" height="27" viewBox="0 0 50 27" fill="none" xmlns="http://www.w3.org/2000/svg">
<rect x="0.3" y="0.3" width="49.4" height="26.4" rx="2.2" fill="white"/>
<rect x="0.3" y="0.3" width="49.4" height="26.4" rx="2.2" stroke="#AEAEAE" stroke-width="0.6"/>
<path d="M11.9119 19V9.2H18.8139V9.634H12.3879V13.848H18.1979V14.282H12.3879V18.566H18.8839V19H11.9119ZM24.6557 19.168C23.685 19.168 22.859 18.8227 22.1777 18.132C21.5057 17.432 21.1697 16.55 21.1697 15.486V15.458C21.1697 14.4033 21.5057 13.526 22.1777 12.826C22.859 12.126 23.685 11.776 24.6557 11.776C25.4024 11.776 26.0417 11.972 26.5737 12.364C27.115 12.7467 27.5164 13.246 27.7777 13.862V8.78H28.2257V19H27.7777V17.054C27.5257 17.67 27.1244 18.1787 26.5737 18.58C26.023 18.972 25.3837 19.168 24.6557 19.168ZM24.6977 18.734C25.5564 18.734 26.289 18.4213 26.8957 17.796C27.5024 17.1613 27.8057 16.3913 27.8057 15.486V15.458C27.8057 14.5527 27.5024 13.7873 26.8957 13.162C26.289 12.5273 25.5564 12.21 24.6977 12.21C23.8017 12.21 23.069 12.5133 22.4997 13.12C21.9304 13.7267 21.6457 14.5013 21.6457 15.444V15.472C21.6457 16.4053 21.935 17.1847 22.5137 17.81C23.0924 18.426 23.8204 18.734 24.6977 18.734ZM31.5469 9.998V9.144H32.1489V9.998H31.5469ZM31.6169 19V11.944H32.0789V19H31.6169ZM37.7271 19.126C37.1484 19.126 36.6911 18.9627 36.3551 18.636C36.0191 18.3 35.8511 17.8193 35.8511 17.194V12.35H34.7731V11.944H35.8511V9.578H36.2991V11.944H38.8611V12.35H36.2991V17.152C36.2991 18.188 36.7891 18.706 37.7691 18.706C38.1144 18.706 38.4691 18.622 38.8331 18.454V18.888C38.4971 19.0467 38.1284 19.126 37.7271 19.126Z" fill="#333333"/>
</svg>
