<svg width="48" height="48" viewBox="0 0 48 48" fill="none" xmlns="http://www.w3.org/2000/svg">
<g filter="url(#filter0_d_972_110)">
<path d="M29.9553 22.1165L29.3053 21.0488C28.8845 21.305 28.6535 21.7842 28.7153 22.273C28.7768 22.7615 29.1195 23.1685 29.5908 23.3122L29.9553 22.1165ZM18.2725 22.1165L18.6371 23.3122C19.1083 23.1685 19.451 22.7615 19.5128 22.273C19.5743 21.7842 19.3433 21.305 18.9225 21.0488L18.2725 22.1165ZM34.114 12.5C34.114 16.12 32.1913 19.292 29.3053 21.0488L30.6053 23.1842C34.2053 20.9928 36.614 17.0282 36.614 12.5H34.114ZM24.114 2.5C29.6368 2.5 34.114 6.97715 34.114 12.5H36.614C36.614 5.59645 31.0175 0 24.114 0V2.5ZM14.1139 12.5C14.1139 6.97715 18.5911 2.5 24.114 2.5V0C17.2104 0 11.6139 5.59645 11.6139 12.5H14.1139ZM18.9225 21.0488C16.0366 19.292 14.1139 16.12 14.1139 12.5H11.6139C11.6139 17.0282 14.0226 20.9928 17.6226 23.1842L18.9225 21.0488ZM17.908 20.9208C10.0161 23.3273 4.07293 30.201 3.02763 38.6005L5.50848 38.9092C6.42998 31.5045 11.6736 25.4355 18.6371 23.3122L17.908 20.9208ZM3.02763 38.6005C2.75135 40.8205 4.5904 42.5 6.61393 42.5V40C5.87605 40 5.44373 39.4297 5.50848 38.9092L3.02763 38.6005ZM6.61393 42.5H41.614V40H6.61393V42.5ZM41.614 42.5C43.6375 42.5 45.4765 40.8205 45.2003 38.6005L42.7193 38.9092C42.784 39.4297 42.3518 40 41.614 40V42.5ZM45.2003 38.6005C44.155 30.201 38.2118 23.3273 30.3198 20.9208L29.5908 23.3122C36.5543 25.4355 41.7978 31.5045 42.7193 38.9092L45.2003 38.6005Z" fill="#353535" fill-opacity="0.8"/>
</g>
<defs>
<filter id="filter0_d_972_110" x="0.5" y="0" width="47.2275" height="47.5" filterUnits="userSpaceOnUse" color-interpolation-filters="sRGB">
<feFlood flood-opacity="0" result="BackgroundImageFix"/>
<feColorMatrix in="SourceAlpha" type="matrix" values="0 0 0 0 0 0 0 0 0 0 0 0 0 0 0 0 0 0 127 0" result="hardAlpha"/>
<feOffset dy="2.5"/>
<feGaussianBlur stdDeviation="1.25"/>
<feColorMatrix type="matrix" values="0 0 0 0 0 0 0 0 0 0 0 0 0 0 0 0 0 0 0.1 0"/>
<feBlend mode="normal" in2="BackgroundImageFix" result="effect1_dropShadow_972_110"/>
<feBlend mode="normal" in="SourceGraphic" in2="effect1_dropShadow_972_110" result="shape"/>
</filter>
</defs>
</svg>
